<!DOCTYPE svg PUBLIC "-//W3C//DTD SVG 1.1//EN" "http://www.w3.org/Graphics/SVG/1.1/DTD/svg11.dtd">
<!-- Uploaded to: SVG Repo, www.svgrepo.com, Transformed by: SVG Repo Mixer Tools -->
<svg fill="#000a00" height="800px" width="800px" version="1.1" id="Layer_1" xmlns="http://www.w3.org/2000/svg" xmlns:xlink="http://www.w3.org/1999/xlink" viewBox="-51.2 -51.2 614.40 614.40" xml:space="preserve" stroke="#000a00">
<g id="SVGRepo_bgCarrier" stroke-width="0">
<path transform="translate(-51.2, -51.2), scale(38.4)" fill="#6bef25" d="M9.166.33a2.25 2.25 0 00-2.332 0l-5.25 3.182A2.25 2.25 0 00.5 5.436v5.128a2.25 2.25 0 001.084 1.924l5.25 3.182a2.25 2.25 0 002.332 0l5.25-3.182a2.25 2.25 0 001.084-1.924V5.436a2.25 2.25 0 00-1.084-1.924L9.166.33z" strokewidth="0"/>
</g>
<g id="SVGRepo_tracerCarrier" stroke-linecap="round" stroke-linejoin="round"/>
<g id="SVGRepo_iconCarrier"> <g> <g> <path d="M437.019,74.981C388.668,26.628,324.379,0,256,0C187.62,0,123.332,26.628,74.981,74.981C26.629,123.333,0,187.62,0,256 c0,68.38,26.628,132.668,74.981,181.019C123.333,485.371,187.62,512,256,512c68.379,0,132.668-26.628,181.019-74.981 C485.371,388.667,512,324.38,512,256S485.372,123.332,437.019,74.981z M256,480.653C132.126,480.653,31.347,379.874,31.347,256 S132.126,31.347,256,31.347c123.875,0,224.653,100.779,224.653,224.653S379.875,480.653,256,480.653z"/> </g> </g> <g> <g> <path d="M256,83.592c-25.927,0-47.02,21.093-47.02,47.02s21.093,47.02,47.02,47.02s47.02-21.093,47.02-47.02 S281.927,83.592,256,83.592z M256,146.286c-8.642,0-15.673-7.031-15.673-15.673s7.031-15.673,15.673-15.673 c8.642,0,15.673,7.031,15.673,15.673S264.642,146.286,256,146.286z"/> </g> </g> <g> <g> <path d="M208.98,208.98v219.429h94.041V208.98H208.98z M271.673,397.061h-31.347V240.327h31.347V397.061z"/> </g> </g> </g>
</svg>