<!DOCTYPE svg PUBLIC "-//W3C//DTD SVG 1.1//EN" "http://www.w3.org/Graphics/SVG/1.1/DTD/svg11.dtd">
<!-- Uploaded to: SVG Repo, www.svgrepo.com, Transformed by: SVG Repo Mixer Tools -->
<svg height="800px" width="800px" version="1.1" id="Layer_1" xmlns="http://www.w3.org/2000/svg" xmlns:xlink="http://www.w3.org/1999/xlink" viewBox="0 0 512 512" xml:space="preserve" fill="#000000">
<g id="SVGRepo_bgCarrier" stroke-width="0"/>
<g id="SVGRepo_tracerCarrier" stroke-linecap="round" stroke-linejoin="round"/>
<g id="SVGRepo_iconCarrier"> <g transform="translate(0 -1)"> <g> <path style="fill:#2F3744;" d="M485.517,261.415c-4.882,0-8.828-3.946-8.828-8.828c0-87.614-71.283-158.897-158.897-158.897 c-4.882,0-8.828-3.946-8.828-8.828s3.946-8.828,8.828-8.828c97.351,0,176.552,79.201,176.552,176.552 C494.345,257.469,490.399,261.415,485.517,261.415"/> <path style="fill:#2F3744;" d="M326.621,155.484c-4.882,0-8.828-3.946-8.828-8.828V14.243c0-4.882,3.946-8.828,8.828-8.828 c4.882,0,8.828,3.946,8.828,8.828v132.414C335.448,151.538,331.502,155.484,326.621,155.484"/> <path style="fill:#2F3744;" d="M61.793,155.484c-4.882,0-8.828-3.946-8.828-8.828V14.243c0-4.882,3.946-8.828,8.828-8.828 s8.828,3.946,8.828,8.828v132.414C70.621,151.538,66.675,155.484,61.793,155.484"/> <path style="fill:#2F3744;" d="M494.345,296.725L494.345,296.725c9.754,0,17.655-7.901,17.655-17.655V31.898 c0-9.754-7.901-17.655-17.655-17.655s-17.655,7.901-17.655,17.655V279.07C476.69,288.825,484.59,296.725,494.345,296.725"/> </g> <g> <path style="fill:#464F5D;" d="M17.655,58.381H476.69v35.31H17.655C7.901,93.691,0,85.79,0,76.036S7.901,58.381,17.655,58.381"/> <path style="fill:#464F5D;" d="M105.931,464.45c-4.882,0-8.828-3.946-8.828-8.828V349.691c0-4.882,3.946-8.828,8.828-8.828 c4.882,0,8.828,3.946,8.828,8.828v105.931C114.759,460.504,110.813,464.45,105.931,464.45"/> <path style="fill:#464F5D;" d="M264.828,464.45c-4.882,0-8.828-3.946-8.828-8.828V349.691c0-4.882,3.946-8.828,8.828-8.828 s8.828,3.946,8.828,8.828v105.931C273.655,460.504,269.709,464.45,264.828,464.45"/> </g> <polygon style="fill:#ECF0F1;" points="17.655,411.481 353.103,411.481 353.103,146.654 17.655,146.654 "/> <polygon style="fill:#26ba75;" points="52.966,376.171 317.793,376.171 317.793,181.964 52.966,181.964 "/> <g> <path style="fill:#FFFFFF;" d="M247.172,243.76H123.586c-4.882,0-8.828-3.946-8.828-8.828c0-4.882,3.946-8.828,8.828-8.828 h123.586c4.882,0,8.828,3.946,8.828,8.828C256,239.814,252.054,243.76,247.172,243.76"/> <path style="fill:#FFFFFF;" d="M247.172,332.036H123.586c-4.882,0-8.828-3.946-8.828-8.828c0-4.882,3.946-8.828,8.828-8.828 h123.586c4.882,0,8.828,3.946,8.828,8.828C256,328.09,252.054,332.036,247.172,332.036"/> <path style="fill:#FFFFFF;" d="M264.828,287.898H105.931c-4.882,0-8.828-3.946-8.828-8.828s3.946-8.828,8.828-8.828h158.897 c4.882,0,8.828,3.946,8.828,8.828S269.709,287.898,264.828,287.898"/> </g> <polygon style="fill:#ECF0F1;" points="79.448,508.585 291.31,508.585 291.31,455.619 79.448,455.619 "/> </g> </g>
</svg>